<svg xmlns:xlink="http://www.w3.org/1999/xlink" xmlns="http://www.w3.org/2000/svg" viewBox="0 0 800 246" width="800" height="246" preserveAspectRatio="xMidYMid meet" style="width: 100%; height: 100%; transform: translate3d(0px, 0px, 0px);"><defs><clipPath id="__lottie_element_3"><rect width="800" height="246" x="0" y="0"></rect></clipPath><filter id="__lottie_element_27" filterUnits="objectBoundingBox" x="0%" y="0%" width="100%" height="100%"><feComponentTransfer in="SourceGraphic"><feFuncA type="table" tableValues="1.0 0.0"></feFuncA></feComponentTransfer></filter><mask id="__lottie_element_26" mask-type="alpha"><g filter="url(#__lottie_element_27)"><rect width="800" height="246" x="0" y="0" fill="#ffffff" opacity="0"></rect><g transform="matrix(1,0,0,1,450.06201171875,173.125)" opacity="1" style="display: block;"><g opacity="1" transform="matrix(1,0,0,1,0,0)"><path fill="rgb(0,158,226)" fill-opacity="1" d=" M-35,-146 C-35,-146 -255,-144 -255,-144 C-255,-144 -217,46 -217,46 C-217,46 -71,44 -71,44 C-71,44 -35,-146 -35,-146z"></path></g><g opacity="1" transform="matrix(1,0,0,1,0,0)"><path fill="rgb(0,158,226)" fill-opacity="1" d=" M-26,-146 C-26,-146 270,-144 270,-144 C270,-144 233,46 233,46 C233,46 11,44 11,44 C11,44 -26,-146 -26,-146z"></path></g><g opacity="1" transform="matrix(1,0,0,1,-535,0)"><path fill="rgb(0,158,226)" fill-opacity="1" d=" M-26,-146 C-26,-146 270,-144 270,-144 C270,-144 233,46 233,46 C233,46 11,44 11,44 C11,44 -26,-146 -26,-146z"></path></g></g></g></mask><filter id="__lottie_element_34" filterUnits="objectBoundingBox" x="0%" y="0%" width="100%" height="100%"><feComponentTransfer in="SourceGraphic"><feFuncA type="table" tableValues="1.0 0.0"></feFuncA></feComponentTransfer></filter><mask id="__lottie_element_33" mask-type="alpha"><g filter="url(#__lottie_element_34)"><rect width="800" height="246" x="0" y="0" fill="#ffffff" opacity="0"></rect><g transform="matrix(1,0,0,1,450.06201171875,173.125)" opacity="1" style="display: block;"><g opacity="1" transform="matrix(1,0,0,1,-535,0)"><path fill="rgb(0,158,226)" fill-opacity="1" d=" M-26,-146 C-26,-146 270,-144 270,-144 C270,-144 233,46 233,46 C233,46 11,44 11,44 C11,44 -26,-146 -26,-146z"></path></g></g></g></mask></defs><g clip-path="url(#__lottie_element_3)"><g mask="url(#__lottie_element_33)" style="display: block;"><g transform="matrix(1,0,0,1,399.56201171875,122.625)" opacity="1"><g opacity="1" transform="matrix(1,0,0,1,0,0)"><path fill="#3CE35F" fill-opacity="1" d=" M346,34 C346,31.44499969482422 346,29.0049991607666 346,26.54800033569336 C346,24.090999603271484 346,21.618999481201172 346,19 C346,16.51099967956543 346.406005859375,13.260000228881836 346.6090087890625,10.256999969482422 C346.81201171875,7.254000186920166 346.81201171875,4.498000144958496 346,3 C345.9280090332031,2.867000102996826 344.5660095214844,2.2090001106262207 342.77801513671875,1.4140000343322754 C340.989990234375,0.6190000176429749 338.7760009765625,-0.3149999976158142 337,-1 C333.5140075683594,-2.3450000286102295 330.10400390625,-3.371000051498413 326.77099609375,-4.296999931335449 C323.43798828125,-5.2230000495910645 320.17999267578125,-6.050000190734863 317,-7 C315.02801513671875,-7.5879998207092285 313.1669921875,-8.461000442504883 311.4800109863281,-9.25 C309.7929992675781,-10.038999557495117 308.27899169921875,-10.744999885559082 307,-11 C305.09698486328125,-11.380000114440918 303.16400146484375,-11.53499984741211 301.2980041503906,-11.642000198364258 C299.4320068359375,-11.74899959564209 297.63299560546875,-11.809000015258789 296,-12 C290.0570068359375,-12.694000244140625 284.135986328125,-13.208000183105469 278.2860107421875,-13.416000366210938 C272.4360046386719,-13.62399959564209 266.6579895019531,-13.527000427246094 261,-13 C256.6109924316406,-12.590999603271484 252.26600646972656,-11.718999862670898 247.9409942626953,-10.635000228881836 C243.61599731445312,-9.550999641418457 239.30999755859375,-8.255000114440918 235,-7 C230.69900512695312,-5.747000217437744 226.38800048828125,-4.572000026702881 222.18299865722656,-3.2980000972747803 C217.97799682617188,-2.0239999294281006 213.87899780273438,-0.6499999761581421 210,1 C209.06500244140625,1.3969999551773071 208.2790069580078,1.9229999780654907 207.49400329589844,2.4619998931884766 C206.70899963378906,3.000999927520752 205.927001953125,3.552000045776367 205,4 C201.0850067138672,5.89300012588501 197.31300354003906,7.59499979019165 193.65499877929688,9.222000122070312 C189.9969940185547,10.848999977111816 186.45399475097656,12.402999877929688 183,14 C182.0570068359375,14.435999870300293 181.2760009765625,14.942999839782715 180.4969940185547,15.461999893188477 C179.71800231933594,15.980999946594238 178.94000244140625,16.513999938964844 178,17 C169.00399780273438,21.65999984741211 160.11099243164062,26.363000869750977 151.03799438476562,30.924999237060547 C141.96600341796875,35.48699951171875 132.71400451660156,39.90700149536133 123,44 C115.48999786376953,47.165000915527344 107.13099670410156,50.332000732421875 98.4530029296875,52.874000549316406 C89.7750015258789,55.41600036621094 80.77999877929688,57.33399963378906 72,58 C54.233001708984375,59.347999572753906 39.09700012207031,57.409000396728516 25.469999313354492,53.97800064086914 C11.843000411987305,50.547000885009766 -0.27300000190734863,45.62300109863281 -12,41 C-14.590999603271484,39.97800064086914 -17.30699920654297,38.720001220703125 -19.89299964904785,37.47200012207031 C-22.479000091552734,36.2239990234375 -24.93400001525879,34.98400115966797 -27,34 C-29.41699981689453,32.8489990234375 -31.937999725341797,31.733999252319336 -34.46900177001953,30.589000701904297 C-37,29.444000244140625 -39.54100036621094,28.270000457763672 -42,27 C-42.71200180053711,26.632999420166016 -43.42599868774414,26.261999130249023 -44.10499954223633,25.917999267578125 C-44.784000396728516,25.573999404907227 -45.426998138427734,25.257999420166016 -46,25 C-46.18600082397461,24.916000366210938 -46.32099914550781,24.468000411987305 -46.46699905395508,24.014999389648438 C-46.612998962402344,23.562000274658203 -46.77000045776367,23.104000091552734 -47,23 C-48.11399841308594,22.49799919128418 -49.301998138427734,22.26099967956543 -50.492000579833984,22.01799964904785 C-51.68199920654297,21.774999618530273 -52.875,21.525999069213867 -54,21 C-57.91299819946289,19.16900062561035 -61.71200180053711,17.110000610351562 -65.50800323486328,15.038999557495117 C-69.30400085449219,12.968000411987305 -73.0979995727539,10.883000373840332 -77,9 C-78.92500305175781,8.069999694824219 -80.90899658203125,7.270999908447266 -82.91899871826172,6.478000164031982 C-84.92900085449219,5.684999942779541 -86.96700286865234,4.900000095367432 -89,4 C-90.03199768066406,3.5429999828338623 -91.01000213623047,3.002000093460083 -91.99099731445312,2.4709999561309814 C-92.97200012207031,1.940000057220459 -93.95600128173828,1.4179999828338623 -95,1 C-96.03500366210938,0.5860000252723694 -96.94499969482422,0.49000000953674316 -97.76499938964844,0.41999998688697815 C-98.58499908447266,0.3499999940395355 -99.31700134277344,0.3070000112056732 -100,0 C-100.18900299072266,-0.08500000089406967 -100.31900024414062,-0.5389999747276306 -100.46199798583984,-0.9950000047683716 C-100.6050033569336,-1.4509999752044678 -100.76000213623047,-1.9079999923706055 -101,-2 C-101.58300018310547,-2.2239999771118164 -102.28299713134766,-2.131999969482422 -102.98799896240234,-2.0309998989105225 C-103.69300079345703,-1.9299999475479126 -104.4010009765625,-1.8179999589920044 -105,-2 C-105.18900299072266,-2.058000087738037 -105.55799865722656,-2.513000011444092 -105.94599914550781,-2.9760000705718994 C-106.33399963378906,-3.438999891281128 -106.73899841308594,-3.9110000133514404 -107,-4 C-110.47699737548828,-5.182000160217285 -114.08799743652344,-6.309999942779541 -117.6500015258789,-7.328000068664551 C-121.21199798583984,-8.345999717712402 -124.7229995727539,-9.255000114440918 -128,-10 C-136.33799743652344,-11.895000457763672 -144.49099731445312,-12.788999557495117 -152.60800170898438,-13.012999534606934 C-160.72500610351562,-13.237000465393066 -168.80599975585938,-12.789999961853027 -177,-12 C-179.13699340820312,-11.793999671936035 -181.43099975585938,-11.78499984741211 -183.79400634765625,-11.706999778747559 C-186.15699768066406,-11.628999710083008 -188.58900451660156,-11.482000350952148 -191,-11 C-192.53700256347656,-10.692999839782715 -194.0780029296875,-9.97599983215332 -195.71400451660156,-9.194999694824219 C-197.35000610351562,-8.413999557495117 -199.08200073242188,-7.566999912261963 -201,-7 C-202.88900756835938,-6.440999984741211 -204.9550018310547,-6.013000011444092 -207.01600646972656,-5.563000202178955 C-209.07699584960938,-5.11299991607666 -211.1320037841797,-4.64300012588501 -213,-4 C-214.7550048828125,-3.3959999084472656 -216.60400390625,-2.7730000019073486 -218.46499633789062,-2.111999988555908 C-220.3260040283203,-1.4509999752044678 -222.19700622558594,-0.753000020980835 -224,0 C-228.8560028076172,2.0299999713897705 -231.40699768066406,3.068000078201294 -232.96800231933594,4.703999996185303 C-234.5290069580078,6.340000152587891 -235.1009979248047,8.574999809265137 -236,13 C-236.93499755859375,17.604999542236328 -237.68299865722656,21.63800048828125 -238.44900512695312,25.753999710083008 C-239.21499633789062,29.8700008392334 -239.9969940185547,34.06700134277344 -241,39 C-238.0959930419922,38.20800018310547 -235.6820068359375,37.16299819946289 -233,36 C-231.80499267578125,35.481998443603516 -230.9770050048828,34.452999114990234 -230,34 C-228.59300231933594,33.34700012207031 -226.33099365234375,33.564998626708984 -225,33 C-219.8300018310547,30.804000854492188 -215.14700317382812,27.73699951171875 -210,26 C-207.37600708007812,25.11400032043457 -203.8470001220703,24.83300018310547 -201,24 C-195.10000610351562,22.27400016784668 -189.9929962158203,21.18000030517578 -183,20 C-179.5449981689453,19.41699981689453 -176.41900634765625,18.304000854492188 -173,18 C-127.35900115966797,13.935999870300293 -91.67400360107422,32.94599914550781 -62,48 C-60.27199935913086,48.87699890136719 -59.04399871826172,49.974998474121094 -57,51 C-54.23699951171875,52.38600158691406 -52.319000244140625,51.92599868774414 -50,53 C-46.40800094604492,54.66299819946289 -43.45800018310547,57.17100143432617 -40,59 C-32.48899841308594,62.972999572753906 -25.041000366210938,65.62699890136719 -18,69 C-14.210000038146973,70.81500244140625 -10.847999572753906,73.36299896240234 -7,75 C2.433000087738037,79.01300048828125 14.803999900817871,82.6510009765625 24,85 C38.98699951171875,88.8280029296875 53.89699935913086,90.66600036621094 73,89 C81.74299621582031,88.23799896240234 90.34500122070312,85.4260025024414 99,83 C107.62000274658203,80.58399963378906 116.12999725341797,78.27899932861328 124,75 C131.99099731445312,71.6709976196289 141.73500061035156,66.13300323486328 148,63 C153.4290008544922,60.2859992980957 160.17799377441406,57.47600173950195 164,55 C166.8350067138672,53.16299819946289 170.03199768066406,52.54999923706055 173,51 C175.0500030517578,49.92900085449219 176.26600646972656,48.89799880981445 178,48 C182.26400756835938,45.79100036621094 187.80799865722656,42.59600067138672 191,41 C196.1929931640625,38.40299987792969 200.48699951171875,37.17100143432617 205,35 C221.63900756835938,26.9950008392334 242.55099487304688,19.81999969482422 262,18 C296.9209899902344,14.732000350952148 318.4010009765625,24.27400016784668 346,34z"></path><path stroke-linecap="butt" stroke-linejoin="miter" fill-opacity="0" stroke-miterlimit="4" stroke="#3CE35F" stroke-opacity="1" stroke-width="0px" d=" M346,34 C346,31.44499969482422 346,29.0049991607666 346,26.54800033569336 C346,24.090999603271484 346,21.618999481201172 346,19 C346,16.51099967956543 346.406005859375,13.260000228881836 346.6090087890625,10.256999969482422 C346.81201171875,7.254000186920166 346.81201171875,4.498000144958496 346,3 C345.9280090332031,2.867000102996826 344.5660095214844,2.2090001106262207 342.77801513671875,1.4140000343322754 C340.989990234375,0.6190000176429749 338.7760009765625,-0.3149999976158142 337,-1 C333.5140075683594,-2.3450000286102295 330.10400390625,-3.371000051498413 326.77099609375,-4.296999931335449 C323.43798828125,-5.2230000495910645 320.17999267578125,-6.050000190734863 317,-7 C315.02801513671875,-7.5879998207092285 313.1669921875,-8.461000442504883 311.4800109863281,-9.25 C309.7929992675781,-10.038999557495117 308.27899169921875,-10.744999885559082 307,-11 C305.09698486328125,-11.380000114440918 303.16400146484375,-11.53499984741211 301.2980041503906,-11.642000198364258 C299.4320068359375,-11.74899959564209 297.63299560546875,-11.809000015258789 296,-12 C290.0570068359375,-12.694000244140625 284.135986328125,-13.208000183105469 278.2860107421875,-13.416000366210938 C272.4360046386719,-13.62399959564209 266.6579895019531,-13.527000427246094 261,-13 C256.6109924316406,-12.590999603271484 252.26600646972656,-11.718999862670898 247.9409942626953,-10.635000228881836 C243.61599731445312,-9.550999641418457 239.30999755859375,-8.255000114440918 235,-7 C230.69900512695312,-5.747000217437744 226.38800048828125,-4.572000026702881 222.18299865722656,-3.2980000972747803 C217.97799682617188,-2.0239999294281006 213.87899780273438,-0.6499999761581421 210,1 C209.06500244140625,1.3969999551773071 208.2790069580078,1.9229999780654907 207.49400329589844,2.4619998931884766 C206.70899963378906,3.000999927520752 205.927001953125,3.552000045776367 205,4 C201.0850067138672,5.89300012588501 197.31300354003906,7.59499979019165 193.65499877929688,9.222000122070312 C189.9969940185547,10.848999977111816 186.45399475097656,12.402999877929688 183,14 C182.0570068359375,14.435999870300293 181.2760009765625,14.942999839782715 180.4969940185547,15.461999893188477 C179.71800231933594,15.980999946594238 178.94000244140625,16.513999938964844 178,17 C169.00399780273438,21.65999984741211 160.11099243164062,26.363000869750977 151.03799438476562,30.924999237060547 C141.96600341796875,35.48699951171875 132.71400451660156,39.90700149536133 123,44 C115.48999786376953,47.165000915527344 107.13099670410156,50.332000732421875 98.4530029296875,52.874000549316406 C89.7750015258789,55.41600036621094 80.77999877929688,57.33399963378906 72,58 C54.233001708984375,59.347999572753906 39.09700012207031,57.409000396728516 25.469999313354492,53.97800064086914 C11.843000411987305,50.547000885009766 -0.27300000190734863,45.62300109863281 -12,41 C-14.590999603271484,39.97800064086914 -17.30699920654297,38.720001220703125 -19.89299964904785,37.47200012207031 C-22.479000091552734,36.2239990234375 -24.93400001525879,34.98400115966797 -27,34 C-29.41699981689453,32.8489990234375 -31.937999725341797,31.733999252319336 -34.46900177001953,30.589000701904297 C-37,29.444000244140625 -39.54100036621094,28.270000457763672 -42,27 C-42.71200180053711,26.632999420166016 -43.42599868774414,26.261999130249023 -44.10499954223633,25.917999267578125 C-44.784000396728516,25.573999404907227 -45.426998138427734,25.257999420166016 -46,25 C-46.18600082397461,24.916000366210938 -46.32099914550781,24.468000411987305 -46.46699905395508,24.014999389648438 C-46.612998962402344,23.562000274658203 -46.77000045776367,23.104000091552734 -47,23 C-48.11399841308594,22.49799919128418 -49.301998138427734,22.26099967956543 -50.492000579833984,22.01799964904785 C-51.68199920654297,21.774999618530273 -52.875,21.525999069213867 -54,21 C-57.91299819946289,19.16900062561035 -61.71200180053711,17.110000610351562 -65.50800323486328,15.038999557495117 C-69.30400085449219,12.968000411987305 -73.0979995727539,10.883000373840332 -77,9 C-78.92500305175781,8.069999694824219 -80.90899658203125,7.270999908447266 -82.91899871826172,6.478000164031982 C-84.92900085449219,5.684999942779541 -86.96700286865234,4.900000095367432 -89,4 C-90.03199768066406,3.5429999828338623 -91.01000213623047,3.002000093460083 -91.99099731445312,2.4709999561309814 C-92.97200012207031,1.940000057220459 -93.95600128173828,1.4179999828338623 -95,1 C-96.03500366210938,0.5860000252723694 -96.94499969482422,0.49000000953674316 -97.76499938964844,0.41999998688697815 C-98.58499908447266,0.3499999940395355 -99.31700134277344,0.3070000112056732 -100,0 C-100.18900299072266,-0.08500000089406967 -100.31900024414062,-0.5389999747276306 -100.46199798583984,-0.9950000047683716 C-100.6050033569336,-1.4509999752044678 -100.76000213623047,-1.9079999923706055 -101,-2 C-101.58300018310547,-2.2239999771118164 -102.28299713134766,-2.131999969482422 -102.98799896240234,-2.0309998989105225 C-103.69300079345703,-1.9299999475479126 -104.4010009765625,-1.8179999589920044 -105,-2 C-105.18900299072266,-2.058000087738037 -105.55799865722656,-2.513000011444092 -105.94599914550781,-2.9760000705718994 C-106.33399963378906,-3.438999891281128 -106.73899841308594,-3.9110000133514404 -107,-4 C-110.47699737548828,-5.182000160217285 -114.08799743652344,-6.309999942779541 -117.6500015258789,-7.328000068664551 C-121.21199798583984,-8.345999717712402 -124.7229995727539,-9.255000114440918 -128,-10 C-136.33799743652344,-11.895000457763672 -144.49099731445312,-12.788999557495117 -152.60800170898438,-13.012999534606934 C-160.72500610351562,-13.237000465393066 -168.80599975585938,-12.789999961853027 -177,-12 C-179.13699340820312,-11.793999671936035 -181.43099975585938,-11.78499984741211 -183.79400634765625,-11.706999778747559 C-186.15699768066406,-11.628999710083008 -188.58900451660156,-11.482000350952148 -191,-11 C-192.53700256347656,-10.692999839782715 -194.0780029296875,-9.97599983215332 -195.71400451660156,-9.194999694824219 C-197.35000610351562,-8.413999557495117 -199.08200073242188,-7.566999912261963 -201,-7 C-202.88900756835938,-6.440999984741211 -204.9550018310547,-6.013000011444092 -207.01600646972656,-5.563000202178955 C-209.07699584960938,-5.11299991607666 -211.1320037841797,-4.64300012588501 -213,-4 C-214.7550048828125,-3.3959999084472656 -216.60400390625,-2.7730000019073486 -218.46499633789062,-2.111999988555908 C-220.3260040283203,-1.4509999752044678 -222.19700622558594,-0.753000020980835 -224,0 C-228.8560028076172,2.0299999713897705 -231.40699768066406,3.068000078201294 -232.96800231933594,4.703999996185303 C-234.5290069580078,6.340000152587891 -235.1009979248047,8.574999809265137 -236,13 C-236.93499755859375,17.604999542236328 -237.68299865722656,21.63800048828125 -238.44900512695312,25.753999710083008 C-239.21499633789062,29.8700008392334 -239.9969940185547,34.06700134277344 -241,39 C-238.0959930419922,38.20800018310547 -235.6820068359375,37.16299819946289 -233,36 C-231.80499267578125,35.481998443603516 -230.9770050048828,34.452999114990234 -230,34 C-228.59300231933594,33.34700012207031 -226.33099365234375,33.564998626708984 -225,33 C-219.8300018310547,30.804000854492188 -215.14700317382812,27.73699951171875 -210,26 C-207.37600708007812,25.11400032043457 -203.8470001220703,24.83300018310547 -201,24 C-195.10000610351562,22.27400016784668 -189.9929962158203,21.18000030517578 -183,20 C-179.5449981689453,19.41699981689453 -176.41900634765625,18.304000854492188 -173,18 C-127.35900115966797,13.935999870300293 -91.67400360107422,32.94599914550781 -62,48 C-60.27199935913086,48.87699890136719 -59.04399871826172,49.974998474121094 -57,51 C-54.23699951171875,52.38600158691406 -52.319000244140625,51.92599868774414 -50,53 C-46.40800094604492,54.66299819946289 -43.45800018310547,57.17100143432617 -40,59 C-32.48899841308594,62.972999572753906 -25.041000366210938,65.62699890136719 -18,69 C-14.210000038146973,70.81500244140625 -10.847999572753906,73.36299896240234 -7,75 C2.433000087738037,79.01300048828125 14.803999900817871,82.6510009765625 24,85 C38.98699951171875,88.8280029296875 53.89699935913086,90.66600036621094 73,89 C81.74299621582031,88.23799896240234 90.34500122070312,85.4260025024414 99,83 C107.62000274658203,80.58399963378906 116.12999725341797,78.27899932861328 124,75 C131.99099731445312,71.6709976196289 141.73500061035156,66.13300323486328 148,63 C153.4290008544922,60.2859992980957 160.17799377441406,57.47600173950195 164,55 C166.8350067138672,53.16299819946289 170.03199768066406,52.54999923706055 173,51 C175.0500030517578,49.92900085449219 176.26600646972656,48.89799880981445 178,48 C182.26400756835938,45.79100036621094 187.80799865722656,42.59600067138672 191,41 C196.1929931640625,38.40299987792969 200.48699951171875,37.17100143432617 205,35 C221.63900756835938,26.9950008392334 242.55099487304688,19.81999969482422 262,18 C296.9209899902344,14.732000350952148 318.4010009765625,24.27400016784668 346,34z"></path></g></g></g><g mask="url(#__lottie_element_26)" style="display: block;"><g transform="matrix(1,0,0,1,399.56201171875,122.625)" opacity="1"><g opacity="1" transform="matrix(1,0,0,1,0,0)"><path fill="#002FFF" fill-opacity="1" d=" M346,34 C346,31.44499969482422 346,29.0049991607666 346,26.54800033569336 C346,24.090999603271484 346,21.618999481201172 346,19 C346,16.51099967956543 346.406005859375,13.260000228881836 346.6090087890625,10.256999969482422 C346.81201171875,7.254000186920166 346.81201171875,4.498000144958496 346,3 C345.9280090332031,2.867000102996826 344.5660095214844,2.2090001106262207 342.77801513671875,1.4140000343322754 C340.989990234375,0.6190000176429749 338.7760009765625,-0.3149999976158142 337,-1 C333.5140075683594,-2.3450000286102295 330.10400390625,-3.371000051498413 326.77099609375,-4.296999931335449 C323.43798828125,-5.2230000495910645 320.17999267578125,-6.050000190734863 317,-7 C315.02801513671875,-7.5879998207092285 313.1669921875,-8.461000442504883 311.4800109863281,-9.25 C309.7929992675781,-10.038999557495117 308.27899169921875,-10.744999885559082 307,-11 C305.09698486328125,-11.380000114440918 303.16400146484375,-11.53499984741211 301.2980041503906,-11.642000198364258 C299.4320068359375,-11.74899959564209 297.63299560546875,-11.809000015258789 296,-12 C290.0570068359375,-12.694000244140625 284.135986328125,-13.208000183105469 278.2860107421875,-13.416000366210938 C272.4360046386719,-13.62399959564209 266.6579895019531,-13.527000427246094 261,-13 C256.6109924316406,-12.590999603271484 252.26600646972656,-11.718999862670898 247.9409942626953,-10.635000228881836 C243.61599731445312,-9.550999641418457 239.30999755859375,-8.255000114440918 235,-7 C230.69900512695312,-5.747000217437744 226.38800048828125,-4.572000026702881 222.18299865722656,-3.2980000972747803 C217.97799682617188,-2.0239999294281006 213.87899780273438,-0.6499999761581421 210,1 C209.06500244140625,1.3969999551773071 208.2790069580078,1.9229999780654907 207.49400329589844,2.4619998931884766 C206.70899963378906,3.000999927520752 205.927001953125,3.552000045776367 205,4 C201.0850067138672,5.89300012588501 197.31300354003906,7.59499979019165 193.65499877929688,9.222000122070312 C189.9969940185547,10.848999977111816 186.45399475097656,12.402999877929688 183,14 C182.0570068359375,14.435999870300293 181.2760009765625,14.942999839782715 180.4969940185547,15.461999893188477 C179.71800231933594,15.980999946594238 178.94000244140625,16.513999938964844 178,17 C169.00399780273438,21.65999984741211 160.11099243164062,26.363000869750977 151.03799438476562,30.924999237060547 C141.96600341796875,35.48699951171875 132.71400451660156,39.90700149536133 123,44 C115.48999786376953,47.165000915527344 107.13099670410156,50.332000732421875 98.4530029296875,52.874000549316406 C89.7750015258789,55.41600036621094 80.77999877929688,57.33399963378906 72,58 C54.233001708984375,59.347999572753906 39.09700012207031,57.409000396728516 25.469999313354492,53.97800064086914 C11.843000411987305,50.547000885009766 -0.27300000190734863,45.62300109863281 -12,41 C-14.590999603271484,39.97800064086914 -17.30699920654297,38.720001220703125 -19.89299964904785,37.47200012207031 C-22.479000091552734,36.2239990234375 -24.93400001525879,34.98400115966797 -27,34 C-29.41699981689453,32.8489990234375 -31.937999725341797,31.733999252319336 -34.46900177001953,30.589000701904297 C-37,29.444000244140625 -39.54100036621094,28.270000457763672 -42,27 C-42.71200180053711,26.632999420166016 -43.42599868774414,26.261999130249023 -44.10499954223633,25.917999267578125 C-44.784000396728516,25.573999404907227 -45.426998138427734,25.257999420166016 -46,25 C-46.18600082397461,24.916000366210938 -46.32099914550781,24.468000411987305 -46.46699905395508,24.014999389648438 C-46.612998962402344,23.562000274658203 -46.77000045776367,23.104000091552734 -47,23 C-48.11399841308594,22.49799919128418 -49.301998138427734,22.26099967956543 -50.492000579833984,22.01799964904785 C-51.68199920654297,21.774999618530273 -52.875,21.525999069213867 -54,21 C-57.91299819946289,19.16900062561035 -61.71200180053711,17.110000610351562 -65.50800323486328,15.038999557495117 C-69.30400085449219,12.968000411987305 -73.0979995727539,10.883000373840332 -77,9 C-78.92500305175781,8.069999694824219 -80.90899658203125,7.270999908447266 -82.91899871826172,6.478000164031982 C-84.92900085449219,5.684999942779541 -86.96700286865234,4.900000095367432 -89,4 C-90.03199768066406,3.5429999828338623 -91.01000213623047,3.002000093460083 -91.99099731445312,2.4709999561309814 C-92.97200012207031,1.940000057220459 -93.95600128173828,1.4179999828338623 -95,1 C-96.03500366210938,0.5860000252723694 -96.94499969482422,0.49000000953674316 -97.76499938964844,0.41999998688697815 C-98.58499908447266,0.3499999940395355 -99.31700134277344,0.3070000112056732 -100,0 C-100.18900299072266,-0.08500000089406967 -100.31900024414062,-0.5389999747276306 -100.46199798583984,-0.9950000047683716 C-100.6050033569336,-1.4509999752044678 -100.76000213623047,-1.9079999923706055 -101,-2 C-101.58300018310547,-2.2239999771118164 -102.28299713134766,-2.131999969482422 -102.98799896240234,-2.0309998989105225 C-103.69300079345703,-1.9299999475479126 -104.4010009765625,-1.8179999589920044 -105,-2 C-105.18900299072266,-2.058000087738037 -105.55799865722656,-2.513000011444092 -105.94599914550781,-2.9760000705718994 C-106.33399963378906,-3.438999891281128 -106.73899841308594,-3.9110000133514404 -107,-4 C-110.47699737548828,-5.182000160217285 -114.08799743652344,-6.309999942779541 -117.6500015258789,-7.328000068664551 C-121.21199798583984,-8.345999717712402 -124.7229995727539,-9.255000114440918 -128,-10 C-136.33799743652344,-11.895000457763672 -144.49099731445312,-12.788999557495117 -152.60800170898438,-13.012999534606934 C-160.72500610351562,-13.237000465393066 -168.80599975585938,-12.789999961853027 -177,-12 C-179.13699340820312,-11.793999671936035 -181.43099975585938,-11.78499984741211 -183.79400634765625,-11.706999778747559 C-186.15699768066406,-11.628999710083008 -188.58900451660156,-11.482000350952148 -191,-11 C-192.53700256347656,-10.692999839782715 -194.0780029296875,-9.97599983215332 -195.71400451660156,-9.194999694824219 C-197.35000610351562,-8.413999557495117 -199.08200073242188,-7.566999912261963 -201,-7 C-202.88900756835938,-6.440999984741211 -204.9550018310547,-6.013000011444092 -207.01600646972656,-5.563000202178955 C-209.07699584960938,-5.11299991607666 -211.1320037841797,-4.64300012588501 -213,-4 C-214.7550048828125,-3.3959999084472656 -216.60400390625,-2.7730000019073486 -218.46499633789062,-2.111999988555908 C-220.3260040283203,-1.4509999752044678 -222.19700622558594,-0.753000020980835 -224,0 C-228.8560028076172,2.0299999713897705 -231.40699768066406,3.068000078201294 -232.96800231933594,4.703999996185303 C-234.5290069580078,6.340000152587891 -235.1009979248047,8.574999809265137 -236,13 C-236.93499755859375,17.604999542236328 -237.68299865722656,21.63800048828125 -238.44900512695312,25.753999710083008 C-239.21499633789062,29.8700008392334 -239.9969940185547,34.06700134277344 -241,39 C-238.0959930419922,38.20800018310547 -235.6820068359375,37.16299819946289 -233,36 C-231.80499267578125,35.481998443603516 -230.9770050048828,34.452999114990234 -230,34 C-228.59300231933594,33.34700012207031 -226.33099365234375,33.564998626708984 -225,33 C-219.8300018310547,30.804000854492188 -215.14700317382812,27.73699951171875 -210,26 C-207.37600708007812,25.11400032043457 -203.8470001220703,24.83300018310547 -201,24 C-195.10000610351562,22.27400016784668 -189.9929962158203,21.18000030517578 -183,20 C-179.5449981689453,19.41699981689453 -176.41900634765625,18.304000854492188 -173,18 C-127.35900115966797,13.935999870300293 -91.67400360107422,32.94599914550781 -62,48 C-60.27199935913086,48.87699890136719 -59.04399871826172,49.974998474121094 -57,51 C-54.23699951171875,52.38600158691406 -52.319000244140625,51.92599868774414 -50,53 C-46.40800094604492,54.66299819946289 -43.45800018310547,57.17100143432617 -40,59 C-32.48899841308594,62.972999572753906 -25.041000366210938,65.62699890136719 -18,69 C-14.210000038146973,70.81500244140625 -10.847999572753906,73.36299896240234 -7,75 C2.433000087738037,79.01300048828125 14.803999900817871,82.6510009765625 24,85 C38.98699951171875,88.8280029296875 53.89699935913086,90.66600036621094 73,89 C81.74299621582031,88.23799896240234 90.34500122070312,85.4260025024414 99,83 C107.62000274658203,80.58399963378906 116.12999725341797,78.27899932861328 124,75 C131.99099731445312,71.6709976196289 141.73500061035156,66.13300323486328 148,63 C153.4290008544922,60.2859992980957 160.17799377441406,57.47600173950195 164,55 C166.8350067138672,53.16299819946289 170.03199768066406,52.54999923706055 173,51 C175.0500030517578,49.92900085449219 176.26600646972656,48.89799880981445 178,48 C182.26400756835938,45.79100036621094 187.80799865722656,42.59600067138672 191,41 C196.1929931640625,38.40299987792969 200.48699951171875,37.17100143432617 205,35 C221.63900756835938,26.9950008392334 242.55099487304688,19.81999969482422 262,18 C296.9209899902344,14.732000350952148 318.4010009765625,24.27400016784668 346,34z"></path><path stroke-linecap="butt" stroke-linejoin="miter" fill-opacity="0" stroke-miterlimit="4" stroke="#002FFF" stroke-opacity="1" stroke-width="0px" d=" M346,34 C346,31.44499969482422 346,29.0049991607666 346,26.54800033569336 C346,24.090999603271484 346,21.618999481201172 346,19 C346,16.51099967956543 346.406005859375,13.260000228881836 346.6090087890625,10.256999969482422 C346.81201171875,7.254000186920166 346.81201171875,4.498000144958496 346,3 C345.9280090332031,2.867000102996826 344.5660095214844,2.2090001106262207 342.77801513671875,1.4140000343322754 C340.989990234375,0.6190000176429749 338.7760009765625,-0.3149999976158142 337,-1 C333.5140075683594,-2.3450000286102295 330.10400390625,-3.371000051498413 326.77099609375,-4.296999931335449 C323.43798828125,-5.2230000495910645 320.17999267578125,-6.050000190734863 317,-7 C315.02801513671875,-7.5879998207092285 313.1669921875,-8.461000442504883 311.4800109863281,-9.25 C309.7929992675781,-10.038999557495117 308.27899169921875,-10.744999885559082 307,-11 C305.09698486328125,-11.380000114440918 303.16400146484375,-11.53499984741211 301.2980041503906,-11.642000198364258 C299.4320068359375,-11.74899959564209 297.63299560546875,-11.809000015258789 296,-12 C290.0570068359375,-12.694000244140625 284.135986328125,-13.208000183105469 278.2860107421875,-13.416000366210938 C272.4360046386719,-13.62399959564209 266.6579895019531,-13.527000427246094 261,-13 C256.6109924316406,-12.590999603271484 252.26600646972656,-11.718999862670898 247.9409942626953,-10.635000228881836 C243.61599731445312,-9.550999641418457 239.30999755859375,-8.255000114440918 235,-7 C230.69900512695312,-5.747000217437744 226.38800048828125,-4.572000026702881 222.18299865722656,-3.2980000972747803 C217.97799682617188,-2.0239999294281006 213.87899780273438,-0.6499999761581421 210,1 C209.06500244140625,1.3969999551773071 208.2790069580078,1.9229999780654907 207.49400329589844,2.4619998931884766 C206.70899963378906,3.000999927520752 205.927001953125,3.552000045776367 205,4 C201.0850067138672,5.89300012588501 197.31300354003906,7.59499979019165 193.65499877929688,9.222000122070312 C189.9969940185547,10.848999977111816 186.45399475097656,12.402999877929688 183,14 C182.0570068359375,14.435999870300293 181.2760009765625,14.942999839782715 180.4969940185547,15.461999893188477 C179.71800231933594,15.980999946594238 178.94000244140625,16.513999938964844 178,17 C169.00399780273438,21.65999984741211 160.11099243164062,26.363000869750977 151.03799438476562,30.924999237060547 C141.96600341796875,35.48699951171875 132.71400451660156,39.90700149536133 123,44 C115.48999786376953,47.165000915527344 107.13099670410156,50.332000732421875 98.4530029296875,52.874000549316406 C89.7750015258789,55.41600036621094 80.77999877929688,57.33399963378906 72,58 C54.233001708984375,59.347999572753906 39.09700012207031,57.409000396728516 25.469999313354492,53.97800064086914 C11.843000411987305,50.547000885009766 -0.27300000190734863,45.62300109863281 -12,41 C-14.590999603271484,39.97800064086914 -17.30699920654297,38.720001220703125 -19.89299964904785,37.47200012207031 C-22.479000091552734,36.2239990234375 -24.93400001525879,34.98400115966797 -27,34 C-29.41699981689453,32.8489990234375 -31.937999725341797,31.733999252319336 -34.46900177001953,30.589000701904297 C-37,29.444000244140625 -39.54100036621094,28.270000457763672 -42,27 C-42.71200180053711,26.632999420166016 -43.42599868774414,26.261999130249023 -44.10499954223633,25.917999267578125 C-44.784000396728516,25.573999404907227 -45.426998138427734,25.257999420166016 -46,25 C-46.18600082397461,24.916000366210938 -46.32099914550781,24.468000411987305 -46.46699905395508,24.014999389648438 C-46.612998962402344,23.562000274658203 -46.77000045776367,23.104000091552734 -47,23 C-48.11399841308594,22.49799919128418 -49.301998138427734,22.26099967956543 -50.492000579833984,22.01799964904785 C-51.68199920654297,21.774999618530273 -52.875,21.525999069213867 -54,21 C-57.91299819946289,19.16900062561035 -61.71200180053711,17.110000610351562 -65.50800323486328,15.038999557495117 C-69.30400085449219,12.968000411987305 -73.0979995727539,10.883000373840332 -77,9 C-78.92500305175781,8.069999694824219 -80.90899658203125,7.270999908447266 -82.91899871826172,6.478000164031982 C-84.92900085449219,5.684999942779541 -86.96700286865234,4.900000095367432 -89,4 C-90.03199768066406,3.5429999828338623 -91.01000213623047,3.002000093460083 -91.99099731445312,2.4709999561309814 C-92.97200012207031,1.940000057220459 -93.95600128173828,1.4179999828338623 -95,1 C-96.03500366210938,0.5860000252723694 -96.94499969482422,0.49000000953674316 -97.76499938964844,0.41999998688697815 C-98.58499908447266,0.3499999940395355 -99.31700134277344,0.3070000112056732 -100,0 C-100.18900299072266,-0.08500000089406967 -100.31900024414062,-0.5389999747276306 -100.46199798583984,-0.9950000047683716 C-100.6050033569336,-1.4509999752044678 -100.76000213623047,-1.9079999923706055 -101,-2 C-101.58300018310547,-2.2239999771118164 -102.28299713134766,-2.131999969482422 -102.98799896240234,-2.0309998989105225 C-103.69300079345703,-1.9299999475479126 -104.4010009765625,-1.8179999589920044 -105,-2 C-105.18900299072266,-2.058000087738037 -105.55799865722656,-2.513000011444092 -105.94599914550781,-2.9760000705718994 C-106.33399963378906,-3.438999891281128 -106.73899841308594,-3.9110000133514404 -107,-4 C-110.47699737548828,-5.182000160217285 -114.08799743652344,-6.309999942779541 -117.6500015258789,-7.328000068664551 C-121.21199798583984,-8.345999717712402 -124.7229995727539,-9.255000114440918 -128,-10 C-136.33799743652344,-11.895000457763672 -144.49099731445312,-12.788999557495117 -152.60800170898438,-13.012999534606934 C-160.72500610351562,-13.237000465393066 -168.80599975585938,-12.789999961853027 -177,-12 C-179.13699340820312,-11.793999671936035 -181.43099975585938,-11.78499984741211 -183.79400634765625,-11.706999778747559 C-186.15699768066406,-11.628999710083008 -188.58900451660156,-11.482000350952148 -191,-11 C-192.53700256347656,-10.692999839782715 -194.0780029296875,-9.97599983215332 -195.71400451660156,-9.194999694824219 C-197.35000610351562,-8.413999557495117 -199.08200073242188,-7.566999912261963 -201,-7 C-202.88900756835938,-6.440999984741211 -204.9550018310547,-6.013000011444092 -207.01600646972656,-5.563000202178955 C-209.07699584960938,-5.11299991607666 -211.1320037841797,-4.64300012588501 -213,-4 C-214.7550048828125,-3.3959999084472656 -216.60400390625,-2.7730000019073486 -218.46499633789062,-2.111999988555908 C-220.3260040283203,-1.4509999752044678 -222.19700622558594,-0.753000020980835 -224,0 C-228.8560028076172,2.0299999713897705 -231.40699768066406,3.068000078201294 -232.96800231933594,4.703999996185303 C-234.5290069580078,6.340000152587891 -235.1009979248047,8.574999809265137 -236,13 C-236.93499755859375,17.604999542236328 -237.68299865722656,21.63800048828125 -238.44900512695312,25.753999710083008 C-239.21499633789062,29.8700008392334 -239.9969940185547,34.06700134277344 -241,39 C-238.0959930419922,38.20800018310547 -235.6820068359375,37.16299819946289 -233,36 C-231.80499267578125,35.481998443603516 -230.9770050048828,34.452999114990234 -230,34 C-228.59300231933594,33.34700012207031 -226.33099365234375,33.564998626708984 -225,33 C-219.8300018310547,30.804000854492188 -215.14700317382812,27.73699951171875 -210,26 C-207.37600708007812,25.11400032043457 -203.8470001220703,24.83300018310547 -201,24 C-195.10000610351562,22.27400016784668 -189.9929962158203,21.18000030517578 -183,20 C-179.5449981689453,19.41699981689453 -176.41900634765625,18.304000854492188 -173,18 C-127.35900115966797,13.935999870300293 -91.67400360107422,32.94599914550781 -62,48 C-60.27199935913086,48.87699890136719 -59.04399871826172,49.974998474121094 -57,51 C-54.23699951171875,52.38600158691406 -52.319000244140625,51.92599868774414 -50,53 C-46.40800094604492,54.66299819946289 -43.45800018310547,57.17100143432617 -40,59 C-32.48899841308594,62.972999572753906 -25.041000366210938,65.62699890136719 -18,69 C-14.210000038146973,70.81500244140625 -10.847999572753906,73.36299896240234 -7,75 C2.433000087738037,79.01300048828125 14.803999900817871,82.6510009765625 24,85 C38.98699951171875,88.8280029296875 53.89699935913086,90.66600036621094 73,89 C81.74299621582031,88.23799896240234 90.34500122070312,85.4260025024414 99,83 C107.62000274658203,80.58399963378906 116.12999725341797,78.27899932861328 124,75 C131.99099731445312,71.6709976196289 141.73500061035156,66.13300323486328 148,63 C153.4290008544922,60.2859992980957 160.17799377441406,57.47600173950195 164,55 C166.8350067138672,53.16299819946289 170.03199768066406,52.54999923706055 173,51 C175.0500030517578,49.92900085449219 176.26600646972656,48.89799880981445 178,48 C182.26400756835938,45.79100036621094 187.80799865722656,42.59600067138672 191,41 C196.1929931640625,38.40299987792969 200.48699951171875,37.17100143432617 205,35 C221.63900756835938,26.9950008392334 242.55099487304688,19.81999969482422 262,18 C296.9209899902344,14.732000350952148 318.4010009765625,24.27400016784668 346,34z"></path></g></g></g><g transform="matrix(1,0,0,1,431.73699951171875,25.68799591064453)" opacity="1" style="display: block;"><g opacity="1" transform="matrix(1,0,0,1,284.68798828125,95.96800231933594)"><path fill="#002FFF" fill-opacity="1" d=" M13.362000465393066,-95.71800231933594 C13.362000465393066,-95.71800231933594 -13.359999656677246,-95.71800231933594 -13.359999656677246,-95.71800231933594 C-13.359999656677246,-95.71800231933594 -55.617000579833984,95.71800231933594 -55.617000579833984,95.71800231933594 C-55.617000579833984,95.71800231933594 -23.256000518798828,95.71800231933594 -23.256000518798828,95.71800231933594 C-23.256000518798828,95.71800231933594 -0.1289999932050705,-39.31999969482422 -0.1289999932050705,-39.31999969482422 C-0.1289999932050705,-39.31999969482422 0.38499999046325684,-39.31999969482422 0.38499999046325684,-39.31999969482422 C0.38499999046325684,-39.31999969482422 13.255000114440918,27.863000869750977 13.255000114440918,27.863000869750977 C13.255000114440918,27.863000869750977 23.26300048828125,95.71800231933594 23.26300048828125,95.71800231933594 C23.26300048828125,95.71800231933594 55.617000579833984,95.71800231933594 55.617000579833984,95.71800231933594 C55.617000579833984,95.71800231933594 13.362000465393066,-95.71800231933594 13.362000465393066,-95.71800231933594z"></path></g></g><g transform="matrix(1,0,0,1,27.56201171875,25.125)" opacity="1" style="display: block;"><g opacity="1" transform="matrix(1,0,0,1,596.4019775390625,96.52999877929688)"><path fill="#002FFF" fill-opacity="1" d=" M-16.14299964904785,95.71800231933594 C-16.14299964904785,95.71800231933594 16.142000198364258,95.71800231933594 16.142000198364258,95.71800231933594 C16.142000198364258,95.71800231933594 16.142000198364258,-95.71800231933594 16.142000198364258,-95.71800231933594 C16.142000198364258,-95.71800231933594 -16.14299964904785,-95.71800231933594 -16.14299964904785,-95.71800231933594 C-16.14299964904785,-95.71800231933594 -16.14299964904785,95.71800231933594 -16.14299964904785,95.71800231933594z"></path></g></g><g transform="matrix(1,0,0,1,27.56201171875,25.125)" opacity="1" style="display: block;"><g opacity="1" transform="matrix(1,0,0,1,505.79998779296875,97.52999877929688)"><path fill="#002FFF" fill-opacity="1" d=" M45.486000061035156,-36.564998626708984 C45.486000061035156,-36.564998626708984 45.486000061035156,-49.99599838256836 45.486000061035156,-49.99599838256836 C45.486000061035156,-56.76499938964844 44.33300018310547,-63.137001037597656 42.058998107910156,-68.93699645996094 C39.78099822998047,-74.73600006103516 36.58599853515625,-79.83599853515625 32.5620002746582,-84.0979995727539 C24.283000946044922,-92.84500122070312 13.414999961853027,-97.27999877929688 0.25699999928474426,-97.27999877929688 C-6.455999851226807,-97.27999877929688 -12.690999984741211,-96.10800170898438 -18.273000717163086,-93.79399871826172 C-23.856000900268555,-91.47699737548828 -28.736000061035156,-88.23100280761719 -32.77299880981445,-84.14600372314453 C-36.82099914550781,-80.052001953125 -39.987998962402344,-75.15599822998047 -42.183998107910156,-69.59400177001953 C-44.375,-64.05699920654297 -45.486000061035156,-57.98899841308594 -45.486000061035156,-51.558998107910156 C-45.486000061035156,-51.558998107910156 -45.486000061035156,50.518001556396484 -45.486000061035156,50.518001556396484 C-45.486000061035156,59.45000076293945 -44.040000915527344,66.9469985961914 -41.191001892089844,72.7979965209961 C-38.361000061035156,78.62200164794922 -34.68199920654297,83.46700286865234 -30.257999420166016,87.19599914550781 C-25.820999145507812,90.93900299072266 -20.753999710083008,93.59600067138672 -15.199000358581543,95.09400177001953 C-9.814000129699707,96.54499816894531 -4.440000057220459,97.27999877929688 0.7720000147819519,97.27999877929688 C7.019000053405762,97.27999877929688 12.944999694824219,96.00399780273438 18.384000778198242,93.48600006103516 C23.774999618530273,90.98899841308594 28.54599952697754,87.56700134277344 32.5629997253418,83.31600189208984 C36.56800079345703,79.08000183105469 39.755001068115234,74.1760025024414 42.034000396728516,68.73899841308594 C44.32400131225586,63.270999908447266 45.486000061035156,57.40299987792969 45.486000061035156,51.29899978637695 C45.486000061035156,51.29899978637695 45.486000061035156,36.82600021362305 45.486000061035156,36.82600021362305 C45.486000061035156,36.82600021362305 13.199999809265137,36.82600021362305 13.199999809265137,36.82600021362305 C13.199999809265137,36.82600021362305 13.199999809265137,48.95600128173828 13.199999809265137,48.95600128173828 C13.199999809265137,52.178001403808594 12.76200008392334,54.847999572753906 11.895000457763672,56.89400100708008 C11.059000015258789,58.87300109863281 10.032999992370605,60.42300033569336 8.85099983215332,61.505001068115234 C7.460999965667725,62.61899948120117 5.960999965667725,63.428001403808594 4.385000228881836,63.9119987487793 C2.7170000076293945,64.427001953125 1.156000018119812,64.68800354003906 -0.25699999928474426,64.68800354003906 C-5.203999996185303,64.68800354003906 -8.454999923706055,63.356998443603516 -10.196000099182129,60.61899948120117 C-12.189000129699707,57.47999954223633 -13.201000213623047,53.46799850463867 -13.201000213623047,48.69499969482422 C-13.201000213623047,48.69499969482422 -13.201000213623047,-46.09000015258789 -13.201000213623047,-46.09000015258789 C-13.201000213623047,-51.819000244140625 -12.234999656677246,-56.558998107910156 -10.329000473022461,-60.180999755859375 C-8.734999656677246,-63.2130012512207 -5.355999946594238,-64.68800354003906 0.0010000000474974513,-64.68800354003906 C4.015999794006348,-64.68800354003906 7.105000019073486,-63.20100021362305 9.442999839782715,-60.14500045776367 C11.970999717712402,-56.832000732421875 13.199999809265137,-53.000999450683594 13.199999809265137,-48.433998107910156 C13.199999809265137,-48.433998107910156 13.199999809265137,-36.564998626708984 13.199999809265137,-36.564998626708984 C13.199999809265137,-36.564998626708984 45.486000061035156,-36.564998626708984 45.486000061035156,-36.564998626708984z"></path></g></g><g transform="matrix(1,0,0,1,133.23703002929688,25.68799591064453)" opacity="1" style="display: block;"><g opacity="1" transform="matrix(1,0,0,1,284.68798828125,95.96800231933594)"><path fill="#002FFF" fill-opacity="1" d=" M13.362000465393066,-95.71800231933594 C13.362000465393066,-95.71800231933594 -13.359999656677246,-95.71800231933594 -13.359999656677246,-95.71800231933594 C-13.359999656677246,-95.71800231933594 -55.617000579833984,95.71800231933594 -55.617000579833984,95.71800231933594 C-55.617000579833984,95.71800231933594 -23.256000518798828,95.71800231933594 -23.256000518798828,95.71800231933594 C-23.256000518798828,95.71800231933594 -0.1289999932050705,-39.31999969482422 -0.1289999932050705,-39.31999969482422 C-0.1289999932050705,-39.31999969482422 0.38499999046325684,-39.31999969482422 0.38499999046325684,-39.31999969482422 C0.38499999046325684,-39.31999969482422 13.255000114440918,27.863000869750977 13.255000114440918,27.863000869750977 C13.255000114440918,27.863000869750977 23.26300048828125,95.71800231933594 23.26300048828125,95.71800231933594 C23.26300048828125,95.71800231933594 55.617000579833984,95.71800231933594 55.617000579833984,95.71800231933594 C55.617000579833984,95.71800231933594 13.362000465393066,-95.71800231933594 13.362000465393066,-95.71800231933594z"></path></g></g><g transform="matrix(1,0,0,1,27.56201171875,25.125)" opacity="1" style="display: block;"><g opacity="1" transform="matrix(1,0,0,1,278.2690124511719,96.53099822998047)"><path fill="#002FFF" fill-opacity="1" d=" M-9.854000091552734,63.125999450683594 C-9.854000091552734,63.125999450683594 -9.854000091552734,-95.71800231933594 -9.854000091552734,-95.71800231933594 C-9.854000091552734,-95.71800231933594 -42.138999938964844,-95.71800231933594 -42.138999938964844,-95.71800231933594 C-42.138999938964844,-95.71800231933594 -42.138999938964844,95.71800231933594 -42.138999938964844,95.71800231933594 C-42.138999938964844,95.71800231933594 42.138999938964844,95.71800231933594 42.138999938964844,95.71800231933594 C42.138999938964844,95.71800231933594 42.138999938964844,63.125999450683594 42.138999938964844,63.125999450683594 C42.138999938964844,63.125999450683594 -9.854000091552734,63.125999450683594 -9.854000091552734,63.125999450683594z"></path></g></g><g transform="matrix(1,0,0,1,133.23703002929688,25.68799591064453)" opacity="1" style="display: block;"><g opacity="1" transform="matrix(1,0,0,1,55.867000579833984,95.96800231933594)"><path fill="#002FFF" fill-opacity="1" d=" M13.361000061035156,-95.71800231933594 C13.361000061035156,-95.71800231933594 -13.361000061035156,-95.71800231933594 -13.361000061035156,-95.71800231933594 C-13.361000061035156,-95.71800231933594 -55.617000579833984,95.71800231933594 -55.617000579833984,95.71800231933594 C-55.617000579833984,95.71800231933594 -23.263999938964844,95.71800231933594 -23.263999938964844,95.71800231933594 C-23.263999938964844,95.71800231933594 -13.255000114440918,27.863000869750977 -13.255000114440918,27.863000869750977 C-13.255000114440918,27.863000869750977 -0.38499999046325684,-39.31999969482422 -0.38499999046325684,-39.31999969482422 C-0.38499999046325684,-39.31999969482422 0.12999999523162842,-39.31999969482422 0.12999999523162842,-39.31999969482422 C0.12999999523162842,-39.31999969482422 23.256999969482422,95.71800231933594 23.256999969482422,95.71800231933594 C23.256999969482422,95.71800231933594 55.617000579833984,95.71800231933594 55.617000579833984,95.71800231933594 C55.617000579833984,95.71800231933594 13.361000061035156,-95.71800231933594 13.361000061035156,-95.71800231933594z"></path></g></g><g transform="matrix(1,0,0,1,27.56201171875,25.125)" opacity="1" style="display: block;"><g opacity="1" transform="matrix(1,0,0,1,48.308998107910156,97.52999877929688)"><path fill="#002FFF" fill-opacity="1" d=" M48.058998107910156,-36.30400085449219 C48.058998107910156,-36.30400085449219 48.058998107910156,-52.34000015258789 48.058998107910156,-52.34000015258789 C48.058998107910156,-63.847999572753906 43.79800033569336,-74.18199920654297 35.34600067138672,-83.1050033569336 C31.152999877929688,-87.34200286865234 26.128999710083008,-90.79499816894531 20.410999298095703,-93.36900329589844 C14.63599967956543,-95.96399688720703 8.20199966430664,-97.27999877929688 1.2860000133514404,-97.27999877929688 C-6.857999801635742,-97.27999877929688 -14.01099967956543,-95.82099914550781 -19.972000122070312,-92.94400024414062 C-25.93400001525879,-90.06500244140625 -30.917999267578125,-86.14800262451172 -34.744998931884766,-81.3550033569336 C-38.766998291015625,-76.54499816894531 -41.81800079345703,-70.75599670410156 -43.8120002746582,-64.1500015258789 C-45.775001525878906,-57.65599822998047 -46.77299880981445,-50.70399856567383 -46.77299880981445,-43.48699951171875 C-46.77299880981445,-31.43400001525879 -44.71699905395508,-21.211999893188477 -40.66400146484375,-13.102999687194824 C-36.487998962402344,-4.747000217437744 -28.304000854492188,2.002000093460083 -16.3439998626709,6.951000213623047 C-16.3439998626709,6.951000213623047 2.4179999828338623,14.753000259399414 2.4179999828338623,14.753000259399414 C5.5289998054504395,16.08099937438965 8.038999557495117,17.32699966430664 9.869999885559082,18.450000762939453 C11.430999755859375,19.413999557495117 12.654000282287598,20.606000900268555 13.607999801635742,22.091999053955078 C14.418999671936035,23.639999389648438 14.979999542236328,25.780000686645508 15.276000022888184,28.451000213623047 C15.605999946594238,31.469999313354492 15.77400016784668,35.39099884033203 15.77400016784668,40.10200119018555 C15.77400016784668,44.1609992980957 15.647000312805176,47.89500045776367 15.397000312805176,51.20000076293945 C15.175000190734863,54.124000549316406 14.479999542236328,56.637001037597656 13.333000183105469,58.66999816894531 C12.241999626159668,60.599998474121094 10.74899959564209,62.042999267578125 8.767999649047852,63.08000183105469 C6.728000164031982,64.14800262451172 3.690000057220459,64.68900299072266 -0.25699999928474426,64.68900299072266 C-5.9770002365112305,64.68900299072266 -9.852999687194824,63.18000030517578 -12.102999687194824,60.07600021362305 C-14.572999954223633,56.66699981689453 -15.77400016784668,52.944000244140625 -15.77400016784668,48.69499969482422 C-15.77400016784668,48.69499969482422 -15.77400016784668,37.34700012207031 -15.77400016784668,37.34700012207031 C-15.77400016784668,37.34700012207031 -48.058998107910156,37.34700012207031 -48.058998107910156,37.34700012207031 C-48.058998107910156,37.34700012207031 -48.058998107910156,50.257999420166016 -48.058998107910156,50.257999420166016 C-48.058998107910156,56.9010009765625 -46.80500030517578,63.13399887084961 -44.33100128173828,68.78299713134766 C-41.875,74.4010009765625 -38.50600051879883,79.3949966430664 -34.31999969482422,83.6240005493164 C-30.10700035095215,87.89199829101562 -25.007999420166016,91.27200317382812 -19.163999557495117,93.66999816894531 C-13.32699966430664,96.06600189208984 -6.9670000076293945,97.27999877929688 -0.25699999928474426,97.27999877929688 C8.557000160217285,97.27999877929688 16.179000854492188,95.78099822998047 22.400999069213867,92.8219985961914 C28.659000396728516,89.84400177001953 33.801998138427734,85.677001953125 37.69599914550781,80.4219970703125 C41.35499954223633,75.4229965209961 44.0359992980957,69.31400299072266 45.66400146484375,62.263999938964844 C47.25299835205078,55.38800048828125 48.058998107910156,47.84299850463867 48.058998107910156,39.84199905395508 C48.058998107910156,33.000999450683594 47.70399856567383,26.7810001373291 47.00400161743164,21.356000900268555 C46.28200149536133,15.793000221252441 44.900001525878906,10.729999542236328 42.89899826049805,6.308000087738037 C42.89899826049805,6.308000087738037 42.832000732421875,6.169000148773193 42.832000732421875,6.169000148773193 C40.599998474121094,1.8420000076293945 37.494998931884766,-2.0160000324249268 33.60100173950195,-5.301000118255615 C29.759000778198242,-8.536999702453613 24.70800018310547,-11.378999710083008 18.62700080871582,-13.732999801635742 C18.62700080871582,-13.732999801635742 -1.4450000524520874,-21.804000854492188 -1.4450000524520874,-21.804000854492188 C-4.6539998054504395,-23.10099983215332 -7.176000118255615,-24.389999389648438 -8.949000358581543,-25.64299964904785 C-10.54699993133545,-26.764999389648438 -11.720000267028809,-28.04400062561035 -12.531999588012695,-29.554000854492188 C-13.369999885559082,-31.10700035095215 -13.904000282287598,-32.922000885009766 -14.118000030517578,-34.95000076293945 C-14.36400032043457,-37.257999420166016 -14.48799991607666,-40.21799850463867 -14.48799991607666,-43.74599838256836 C-14.48799991607666,-46.67599868774414 -14.244999885559082,-49.51900100708008 -13.762999534606934,-52.19599914550781 C-13.315999984741211,-54.685001373291016 -12.496000289916992,-56.922000885009766 -11.381999969482422,-58.75299835205078 C-10.244000434875488,-60.48099899291992 -8.777999877929688,-61.88999938964844 -6.9019999504089355,-63.060001373291016 C-5.165999889373779,-64.13999938964844 -2.756999969482422,-64.68800354003906 0.25699999928474426,-64.68800354003906 C5.900000095367432,-64.68800354003906 9.741999626159668,-62.97100067138672 12.001999855041504,-59.4379997253418 C14.505000114440918,-55.525001525878906 15.77400016784668,-50.770999908447266 15.77400016784668,-45.308998107910156 C15.77400016784668,-45.308998107910156 15.77400016784668,-36.30400085449219 15.77400016784668,-36.30400085449219 C15.77400016784668,-36.30400085449219 48.058998107910156,-36.30400085449219 48.058998107910156,-36.30400085449219z"></path></g></g></g></svg>